<svg width="188" height="52" viewBox="0 0 188 52" fill="none" xmlns="http://www.w3.org/2000/svg">
<g clip-path="url(#clip0_11996_16)">
<path d="M82.1575 1.48571C82.1575 0.665177 82.82 0 83.6378 0H104.362C105.18 0 105.843 0.665177 105.843 1.48571V22.2857C105.843 23.1063 105.18 23.7714 104.362 23.7714H83.6378C82.82 23.7714 82.1575 23.1063 82.1575 22.2857V1.48571Z" fill="#0278FE"/>
<path d="M105.843 4.45703H82.1575V5.94275H105.843V4.45703Z" fill="#2A2C2F"/>
<path d="M91.7795 4.45703H90.2992V23.7713H91.7795V4.45703Z" fill="#2A2C2F"/>
<path d="M87.57 51.2579L88.1903 49.1897H91.7438L92.364 51.2579H95.5186L91.9651 40.4526H87.9697L84.4162 51.2579H87.57ZM88.8527 46.9948L89.9252 43.4283H90.0096L91.0821 46.9948H88.8527Z" fill="white"/>
<path d="M96.5555 51.2579H99.4784V47.6913H100.487L102.38 51.2579H105.555L103.368 47.227C104.514 46.673 105.198 45.6231 105.198 44.1247C105.198 41.8244 103.594 40.4526 101.202 40.4526H96.5555V51.2579ZM99.4784 45.4121V42.7952H100.509C101.534 42.7952 102.149 43.1962 102.149 44.1247C102.149 45.048 101.534 45.4121 100.509 45.4121H99.4784Z" fill="white"/>
<path d="M106.149 42.8163H109.387V51.2579H112.268V42.8163H115.506V40.4526H106.149V42.8163Z" fill="white"/>
<path d="M126.547 44.019H129.501C129.275 41.8505 127.314 40.3047 124.77 40.3047C121.868 40.3047 119.513 42.3095 119.513 45.8761C119.513 49.2949 121.648 51.4053 124.791 51.4053C127.609 51.4053 129.627 49.6748 129.627 46.7202V45.2219H124.854V47.3112H126.81C126.784 48.2503 126.121 48.8517 124.812 48.8517C123.298 48.8517 122.52 47.7333 122.52 45.8338C122.52 43.9609 123.361 42.8583 124.833 42.8583C125.747 42.8583 126.368 43.2803 126.547 44.019Z" fill="white"/>
<path d="M133.454 51.2579L134.074 49.1897H137.629L138.249 51.2579H141.403L137.849 40.4526H133.854L130.3 51.2579H133.454ZM134.737 46.9948L135.809 43.4283H135.894L136.966 46.9948H134.737Z" fill="white"/>
<path d="M142.439 51.2579H149.715V48.8942H145.362V40.4526H142.439V51.2579Z" fill="white"/>
<path d="M150.896 51.2579H158.171V48.8942H153.819V40.4526H150.896V51.2579Z" fill="white"/>
<path d="M159.354 51.2579H167.091V48.8942H162.276V47.0371H166.713V44.6734H162.276V42.8163H167.112V40.4526H159.354V51.2579Z" fill="white"/>
<path d="M168.562 51.2579H171.485V47.6913H172.494L174.386 51.2579H177.562L175.374 47.227C176.521 46.673 177.204 45.6231 177.204 44.1247C177.204 41.8244 175.601 40.4526 173.209 40.4526H168.562V51.2579ZM171.485 45.4121V42.7952H172.515C173.54 42.7952 174.155 43.1962 174.155 44.1247C174.155 45.048 173.54 45.4121 172.515 45.4121H171.485Z" fill="white"/>
<path d="M177.502 40.4526L181.456 47.8601V51.2579H184.357V47.8601L188.31 40.4526H185.051L182.948 44.8423H182.864L180.762 40.4526H177.502Z" fill="white"/>
<path d="M80.409 40.4526V51.2578H77.9698L74.0798 45.5809H74.0167V51.2578H71.094V40.4526H73.5752L77.4021 46.1085H77.4862V40.4526H80.409Z" fill="white"/>
<path d="M61.8861 51.2578V40.4526H69.6451V42.8163H64.8089V44.6734H69.2456V47.037H64.8089V48.8942H69.6241V51.2578H61.8861Z" fill="white"/>
<path d="M51.4291 42.8163V40.4526H60.7862V42.8163H57.548V51.2578H54.6673V42.8163H51.4291Z" fill="white"/>
<path d="M42.5146 51.2578V40.4526H50.2736V42.8163H45.4374V44.6734H49.8741V47.037H45.4374V48.8942H50.2526V51.2578H42.5146Z" fill="white"/>
<path d="M34.0574 51.2578V40.4526H36.9802V48.8942H41.3328V51.2578H34.0574Z" fill="white"/>
<path d="M24.3428 51.2578V40.4526H28.9898C29.7889 40.4526 30.488 40.6109 31.0873 40.9275C31.6866 41.244 32.1527 41.689 32.4856 42.2623C32.8185 42.8356 32.985 43.5057 32.985 44.2724C32.985 45.0462 32.8133 45.7163 32.4698 46.2826C32.1299 46.8489 31.6515 47.285 31.0347 47.591C30.4214 47.897 29.7048 48.05 28.8847 48.05H26.1091V45.7708H28.296C28.6394 45.7708 28.932 45.711 29.1738 45.5914C29.4192 45.4683 29.6066 45.2942 29.7363 45.0691C29.8695 44.844 29.9361 44.5784 29.9361 44.2724C29.9361 43.9629 29.8695 43.6991 29.7363 43.481C29.6066 43.2594 29.4192 43.0906 29.1738 42.9745C28.932 42.855 28.6394 42.7952 28.296 42.7952H27.2656V51.2578H24.3428Z" fill="white"/>
<path d="M22.9581 40.4526V51.2578H20.0353V40.4526H22.9581Z" fill="white"/>
<path d="M10.1473 51.2578V40.4526H14.7943C15.5933 40.4526 16.2925 40.5986 16.8918 40.8905C17.491 41.1825 17.9571 41.6028 18.2901 42.1515C18.623 42.7002 18.7895 43.3579 18.7895 44.1247C18.7895 44.8985 18.6177 45.551 18.2743 46.0821C17.9344 46.6132 17.456 47.0142 16.8392 47.285C16.2259 47.5558 15.5092 47.6913 14.6892 47.6913H11.9136V45.412H14.1004C14.4439 45.412 14.7365 45.3698 14.9783 45.2854C15.2236 45.1975 15.4111 45.0585 15.5408 44.8686C15.6739 44.6787 15.7405 44.4307 15.7405 44.1247C15.7405 43.8152 15.6739 43.5637 15.5408 43.3702C15.4111 43.1733 15.2236 43.0291 14.9783 42.9376C14.7365 42.8426 14.4439 42.7952 14.1004 42.7952H13.0701V51.2578H10.1473ZM16.4554 46.2984L19.1469 51.2578H15.9718L13.3434 46.2984H16.4554Z" fill="white"/>
<path d="M-0.309662 42.8163V40.4526H9.04741V42.8163H5.80924V51.2578H2.92852V42.8163H-0.309662Z" fill="white"/>
</g>
<defs>
<clipPath id="clip0_11996_16">
<rect width="188" height="52" fill="white"/>
</clipPath>
</defs>
</svg>
